<svg width="61" height="88" viewBox="0 0 61 88" fill="none" xmlns="http://www.w3.org/2000/svg">
<path d="M30.4984 0C13.6815 0 0 13.7009 0 30.5399C0 46.7489 27.6718 84.6187 28.8502 86.2228L29.9499 87.7211C30.0784 87.8971 30.2832 88 30.4984 88C30.7174 88 30.9208 87.8971 31.0507 87.7211L32.1497 86.2228C33.3287 84.6187 61 46.7489 61 30.5399C61 13.7009 47.3163 0 30.4984 0ZM30.4984 19.6006C36.5243 19.6006 41.4241 24.5068 41.4241 30.5399C41.4241 36.5699 36.524 41.4793 30.4984 41.4793C24.4766 41.4793 19.5732 36.5699 19.5732 30.5399C19.5732 24.5068 24.4762 19.6006 30.4984 19.6006Z" fill="#B81424"/>
</svg>
