<svg width="88" height="88" viewBox="0 0 88 88" fill="none" xmlns="http://www.w3.org/2000/svg">
<path d="M58.8355 58.0439L54.3698 62.5088C53.9878 62.3006 53.5748 62.0937 53.1584 61.8597C49.3255 59.734 41.7579 54.5154 36.238 48.9954C30.706 43.4621 25.4674 35.892 23.3436 32.0588C23.1146 31.656 23.0211 31.3925 22.8128 31.0154L27.0016 27.0787L27.4355 26.6448C30.7543 23.326 30.7543 17.9456 27.4355 14.6267L20.8911 8.08243C17.5539 4.7453 12.1366 4.76676 8.82596 8.13021L7.08159 9.90223C5.94549 11.3549 4.98195 13.0448 4.27641 14.8467C3.62415 16.5681 3.20684 18.2157 3.0262 19.8562C1.43223 33.0334 7.45282 45.0783 23.7903 61.4223C46.3807 84.0061 64.4679 82.4405 65.2543 82.3525C66.962 82.1508 68.7185 81.6095 70.3867 80.9643C72.175 80.2654 73.8792 79.2871 75.325 78.1513L77.0979 76.408C80.4646 73.0979 80.4874 67.678 77.1485 64.3396L70.8529 58.0439C67.5342 54.7257 62.1542 54.7257 58.8355 58.0439Z" fill="#B81424"/>
</svg>
